<?xml version="1.0" standalone="no"?><!DOCTYPE svg PUBLIC "-//W3C//DTD SVG 1.1//EN" "http://www.w3.org/Graphics/SVG/1.1/DTD/svg11.dtd"><svg t="1537265999479" class="icon" style="" viewBox="0 0 1152 1024" version="1.1" xmlns="http://www.w3.org/2000/svg" p-id="3019" xmlns:xlink="http://www.w3.org/1999/xlink" width="125" height="100"><defs><style type="text/css"></style></defs><path d="M1084.44 64.1c-109.6 6.22-327.44 28.86-461.92 111.18-9.28 5.68-14.54 15.78-14.54 26.34v727.74c0 23.1 25.26 37.7 46.56 26.98 138.36-69.64 338.46-88.64 437.4-93.84 33.78-1.78 60.04-28.86 60.04-61.32V125.5c0.02-35.42-30.7-63.48-67.54-61.4zM529.46 175.28C395 92.96 177.16 70.34 67.56 64.1 30.72 62.02 0 90.08 0 125.5V801.2c0 32.48 26.26 59.56 60.04 61.32 98.98 5.2 299.18 24.22 437.54 93.9 21.24 10.7 46.42-3.88 46.42-26.92V201.26c0-10.58-5.24-20.28-14.54-25.98z" fill="#cecece" p-id="3020"></path></svg>